<mxfile host="app.diagrams.net" agent="Mozilla/5.0 (Windows NT 10.0; Win64; x64) AppleWebKit/537.36 (KHTML, like Gecko) Chrome/128.0.0.0 Safari/537.36" version="24.7.8">
  <diagram name="Page-1" id="r6p4L20X6vPuDR5CFq3D">
    <mxGraphModel dx="877" dy="525" grid="1" gridSize="10" guides="1" tooltips="1" connect="1" arrows="1" fold="1" page="1" pageScale="1" pageWidth="850" pageHeight="1100" math="0" shadow="0">
      <root>
        <mxCell id="0" />
        <mxCell id="1" parent="0" />
        <mxCell id="jJnsoDB5HVQXjxGtZA2F-1" value="AWS" style="rounded=0;whiteSpace=wrap;html=1;fillColor=#dae8fc;strokeColor=#6c8ebf;" vertex="1" parent="1">
          <mxGeometry x="285" y="20" width="150" height="60" as="geometry" />
        </mxCell>
        <mxCell id="jJnsoDB5HVQXjxGtZA2F-9" style="edgeStyle=orthogonalEdgeStyle;rounded=0;orthogonalLoop=1;jettySize=auto;html=1;entryX=0;entryY=0.25;entryDx=0;entryDy=0;" edge="1" parent="1" source="jJnsoDB5HVQXjxGtZA2F-2" target="jJnsoDB5HVQXjxGtZA2F-1">
          <mxGeometry relative="1" as="geometry">
            <mxPoint x="150" y="9.236663818359375" as="targetPoint" />
            <Array as="points">
              <mxPoint x="130" y="35" />
            </Array>
          </mxGeometry>
        </mxCell>
        <mxCell id="jJnsoDB5HVQXjxGtZA2F-2" value="Console" style="rounded=1;whiteSpace=wrap;html=1;fillColor=#d5e8d4;strokeColor=#82b366;" vertex="1" parent="1">
          <mxGeometry x="100" y="170" width="100" height="50" as="geometry" />
        </mxCell>
        <mxCell id="jJnsoDB5HVQXjxGtZA2F-10" style="edgeStyle=orthogonalEdgeStyle;rounded=0;orthogonalLoop=1;jettySize=auto;html=1;exitX=0.5;exitY=0;exitDx=0;exitDy=0;entryX=1;entryY=0.25;entryDx=0;entryDy=0;" edge="1" parent="1" source="jJnsoDB5HVQXjxGtZA2F-3" target="jJnsoDB5HVQXjxGtZA2F-1">
          <mxGeometry relative="1" as="geometry" />
        </mxCell>
        <mxCell id="jJnsoDB5HVQXjxGtZA2F-3" value="SDK" style="rounded=1;whiteSpace=wrap;html=1;fillColor=#fff2cc;strokeColor=#d6b656;" vertex="1" parent="1">
          <mxGeometry x="490" y="180" width="100" height="40" as="geometry" />
        </mxCell>
        <mxCell id="jJnsoDB5HVQXjxGtZA2F-4" value="CLI" style="rounded=1;whiteSpace=wrap;html=1;fillColor=#e1d5e7;strokeColor=#9673a6;" vertex="1" parent="1">
          <mxGeometry x="350" y="180" width="100" height="40" as="geometry" />
        </mxCell>
        <mxCell id="jJnsoDB5HVQXjxGtZA2F-5" value="" style="endArrow=classic;html=1;rounded=0;entryX=0.5;entryY=1;entryDx=0;entryDy=0;" edge="1" parent="1">
          <mxGeometry width="50" height="50" relative="1" as="geometry">
            <mxPoint x="390" y="180" as="sourcePoint" />
            <mxPoint x="390" y="80" as="targetPoint" />
          </mxGeometry>
        </mxCell>
        <mxCell id="jJnsoDB5HVQXjxGtZA2F-11" value="For every programming language Aws create&lt;br&gt;library known as SDK" style="text;html=1;align=center;verticalAlign=middle;resizable=0;points=[];autosize=1;strokeColor=none;fillColor=none;" vertex="1" parent="1">
          <mxGeometry x="535" y="125" width="260" height="40" as="geometry" />
        </mxCell>
        <mxCell id="jJnsoDB5HVQXjxGtZA2F-14" value="" style="edgeStyle=orthogonalEdgeStyle;rounded=0;orthogonalLoop=1;jettySize=auto;html=1;" edge="1" parent="1" source="jJnsoDB5HVQXjxGtZA2F-12" target="jJnsoDB5HVQXjxGtZA2F-1">
          <mxGeometry relative="1" as="geometry" />
        </mxCell>
        <mxCell id="jJnsoDB5HVQXjxGtZA2F-12" value="API" style="rounded=1;whiteSpace=wrap;html=1;fillColor=#f8cecc;strokeColor=#b85450;" vertex="1" parent="1">
          <mxGeometry x="210" y="170" width="120" height="45" as="geometry" />
        </mxCell>
        <mxCell id="jJnsoDB5HVQXjxGtZA2F-15" value="Programs" style="text;html=1;align=center;verticalAlign=middle;resizable=0;points=[];autosize=1;strokeColor=none;fillColor=none;" vertex="1" parent="1">
          <mxGeometry x="230" y="218" width="80" height="30" as="geometry" />
        </mxCell>
        <mxCell id="jJnsoDB5HVQXjxGtZA2F-16" value="Programs" style="text;html=1;align=center;verticalAlign=middle;resizable=0;points=[];autosize=1;strokeColor=none;fillColor=none;" vertex="1" parent="1">
          <mxGeometry x="355" y="228" width="80" height="30" as="geometry" />
        </mxCell>
        <mxCell id="jJnsoDB5HVQXjxGtZA2F-17" value="Programs" style="text;html=1;align=center;verticalAlign=middle;resizable=0;points=[];autosize=1;strokeColor=none;fillColor=none;" vertex="1" parent="1">
          <mxGeometry x="500" y="228" width="80" height="30" as="geometry" />
        </mxCell>
        <mxCell id="jJnsoDB5HVQXjxGtZA2F-18" value="Humans" style="text;html=1;align=center;verticalAlign=middle;resizable=0;points=[];autosize=1;strokeColor=none;fillColor=none;" vertex="1" parent="1">
          <mxGeometry x="115" y="228" width="70" height="30" as="geometry" />
        </mxCell>
        <mxCell id="jJnsoDB5HVQXjxGtZA2F-19" value="Access Key and Secret key" style="text;html=1;align=center;verticalAlign=middle;resizable=0;points=[];autosize=1;strokeColor=none;fillColor=none;" vertex="1" parent="1">
          <mxGeometry x="275" y="270" width="170" height="30" as="geometry" />
        </mxCell>
        <mxCell id="jJnsoDB5HVQXjxGtZA2F-20" value="For python , boto3 and botocore are libraries" style="text;html=1;align=center;verticalAlign=middle;resizable=0;points=[];autosize=1;strokeColor=none;fillColor=none;" vertex="1" parent="1">
          <mxGeometry x="535" y="158" width="260" height="30" as="geometry" />
        </mxCell>
        <mxCell id="jJnsoDB5HVQXjxGtZA2F-22" value="Username, Password" style="text;html=1;align=center;verticalAlign=middle;resizable=0;points=[];autosize=1;strokeColor=none;fillColor=none;" vertex="1" parent="1">
          <mxGeometry x="80" y="258" width="140" height="30" as="geometry" />
        </mxCell>
      </root>
    </mxGraphModel>
  </diagram>
</mxfile>
